<svg xmlns="http://www.w3.org/2000/svg" width="800" height="500" viewBox="0 0 800 500">
<defs>
  <linearGradient id="bg" x1="0" y1="0" x2="1" y2="1"><stop offset="0" stop-color="#43c8f5"/><stop offset="1" stop-color="#ffd21a"/></linearGradient>
  <filter id="sh" x="-20%" y="-20%" width="140%" height="140%"><feDropShadow dx="8" dy="8" stdDeviation="0" flood-color="#20242f" flood-opacity=".15"/></filter>
</defs>
<rect width="800" height="500" fill="url(#bg)"/>
<circle cx="65" cy="65" r="18" fill="#ffffff" opacity=".8"/>
<path d="M720 55 l12 24 26 4-19 18 5 26-24-13-23 13 4-26-19-18 27-4z" fill="#ffffff" opacity=".45"/>
<path d="M38 410 q50-40 100 0t100 0t100 0t100 0t100 0t100 0t100 0v90H38z" fill="#ffffff" opacity=".25"/>
<g stroke="#20242f" stroke-width="8" stroke-linecap="round"><rect x="340" y="110" width="115" height="140" rx="55" fill="#ff7aa8"/>
<path d="M315 195v25q0 85 82 85t82-85v-25" fill="none"/><path d="M397 305v55M340 360h114" fill="none"/></g>
<path d="M260 145q-40 45 0 90M530 145q40 45 0 90" fill="none" stroke="#ffd21a" stroke-width="12" stroke-linecap="round"/>
<g font-family="Trebuchet MS,Arial,sans-serif" font-weight="800" fill="#20242f">
  <rect x="36" y="30" width="150" height="45" rx="22" fill="#ffffff" stroke="#20242f" stroke-width="3"/>
  <text x="56" y="59" font-size="19">MUSIC</text>
  <rect x="606" y="30" width="158" height="45" rx="22" fill="#20242f"/>
  <text x="685" y="59" font-size="18" text-anchor="middle" fill="#ffffff">INTERMEDIATE</text>
  <rect x="24" y="370" width="505" height="76" rx="24" fill="#fffaf0" stroke="#20242f" stroke-width="3" filter="url(#sh)"/>
  <text x="42" y="404" font-size="30"><tspan x="42" dy="0">Vocal Development</tspan></text>
</g>
</svg>